<?xml version="1.0" encoding="UTF-8"?>
<svg xmlns="http://www.w3.org/2000/svg" xmlns:xlink="http://www.w3.org/1999/xlink" width="16pt" height="17pt" viewBox="0 0 16 17" version="1.1">
<g id="surface1">
<path style=" stroke:none;fill-rule:nonzero;fill:rgb(0%,0%,0%);fill-opacity:1;" d="M 3.582031 14.875 L 0.265625 14.875 L 0.265625 4.945312 L 3.582031 4.945312 Z M 1.921875 3.589844 C 0.859375 3.589844 0 2.773438 0 1.785156 C 0 0.800781 0.859375 0 1.921875 0 C 2.980469 0 3.84375 0.800781 3.84375 1.785156 C 3.84375 2.773438 2.980469 3.589844 1.921875 3.589844 Z M 15.996094 14.875 L 12.6875 14.875 L 12.6875 10.039062 C 12.6875 8.886719 12.660156 7.410156 10.960938 7.410156 C 9.238281 7.410156 8.972656 8.664062 8.972656 9.957031 L 8.972656 14.875 L 5.660156 14.875 L 5.660156 4.945312 L 8.839844 4.945312 L 8.839844 6.296875 L 8.886719 6.296875 C 9.328125 5.519531 10.410156 4.695312 12.027344 4.695312 C 15.382812 4.695312 16 6.75 16 9.417969 L 16 14.875 Z M 15.996094 14.875 "/>
</g>
</svg>
