<?xml version="1.0" encoding="utf-8"?><svg viewBox="0 0 20.03 20" xmlns="http://www.w3.org/2000/svg" xmlns:xlink="http://www.w3.org/1999/xlink"><style>:root>svg{display:none}:root>svg:target{display:block}</style><svg viewBox="0 0 20 20" id="cart" xmlns="http://www.w3.org/2000/svg"><path fill-rule="evenodd" d="M17.44 20a2.724 2.724 0 112.74-2.724A2.738 2.738 0 0117.44 20zm0-3.814a1.09 1.09 0 101.09 1.09 1.094 1.094 0 00-1.09-1.093zm1.75-2.806H6.38a.823.823 0 01-.8-.628L2.9 1.637H.84a.817.817 0 110-1.634h2.71a.824.824 0 01.8.627l.74 3.078h16.1a.818.818 0 01.8 1.014l-2 8.038a.822.822 0 01-.8.617zM7.03 11.745h11.52l1.59-6.4H5.49zM7.48 20a2.724 2.724 0 112.74-2.724A2.738 2.738 0 017.48 20zm0-3.814a1.09 1.09 0 101.09 1.09 1.094 1.094 0 00-1.09-1.093z"/></svg><svg viewBox="0 0 11 17" id="facebook" xmlns="http://www.w3.org/2000/svg"><path d="M9.594 9.563l.492-3.079H7.027V4.488c0-.84.426-1.66 1.797-1.66h1.39V.207S8.955 0 7.747 0c-2.516 0-4.16 1.473-4.16 4.14v2.344h-2.8v3.079h2.8V17h3.441V9.562zm0 0"/></svg><svg viewBox="0 0 16 16" id="google+" xmlns="http://www.w3.org/2000/svg"><path d="M16 8.18c0 4.422-3.176 7.57-7.867 7.57C3.633 15.75 0 12.29 0 8S3.633.25 8.133.25c2.187 0 4.031.766 5.449 2.027l-2.21 2.028C8.476 1.645 3.093 3.645 3.093 8c0 2.703 2.261 4.895 5.039 4.895 3.219 0 4.426-2.2 4.613-3.34H8.133V6.887h7.738c.078.398.129.777.129 1.293zm0 0"/></svg><svg viewBox="0 0 20 20" id="heart" xmlns="http://www.w3.org/2000/svg"><path fill-rule="evenodd" d="M19.75 4.589A6.683 6.683 0 0015.58.218c-1.71-.595-3.75 0-5.58 1.611C8.17.26 6.12-.293 4.42.26A6.884 6.884 0 00.25 4.631c-.47 1.57-.51 4.117 1.95 7.215 1.11 1.4 2.82 3.4 4.22 4.965 2.68 3.014 3.11 3.183 3.49 3.183h.17c.39 0 .77-.168 3.45-3.224a224.86 224.86 0 004.22-4.966c2.47-3.098 2.47-5.645 2-7.215zm-3.28 6.2c-1.96 2.462-5.32 6.324-6.47 7.385-1.15-1.061-4.52-4.924-6.48-7.385-1.61-1.994-2.21-3.947-1.7-5.687a4.986 4.986 0 013.11-3.225c1.23-.467 2.9.169 4.43 1.655a.84.84 0 001.06.126.447.447 0 00.22-.17c1.53-1.443 3.19-2.079 4.42-1.655a5.168 5.168 0 013.11 3.268c.51 1.699-.08 3.689-1.7 5.683z"/></svg><svg viewBox="0 0 16 17" id="linkedin" xmlns="http://www.w3.org/2000/svg"><path d="M3.582 14.875H.266v-9.93h3.316zM1.922 3.59C.859 3.59 0 2.773 0 1.785 0 .801.86 0 1.922 0 2.98 0 3.844.8 3.844 1.785c0 .988-.864 1.805-1.922 1.805zm14.074 11.285h-3.309v-4.836c0-1.152-.027-2.629-1.726-2.629-1.723 0-1.988 1.254-1.988 2.547v4.918H5.66v-9.93h3.18v1.352h.047c.441-.777 1.523-1.602 3.14-1.602C15.383 4.695 16 6.75 16 9.418v5.457zm0 0"/></svg><svg viewBox="0 0 13 16" id="pinterest" xmlns="http://www.w3.org/2000/svg"><path d="M6.906.203C3.434.203 0 2.34 0 5.801 0 8 1.34 9.25 2.152 9.25c.336 0 .528-.863.528-1.105 0-.293-.801-.91-.801-2.122 0-2.511 2.07-4.293 4.754-4.293 2.304 0 4.012 1.211 4.012 3.434 0 1.656-.723 4.77-3.06 4.77-.843 0-1.562-.563-1.562-1.368 0-1.183.895-2.324.895-3.543 0-2.07-3.18-1.695-3.18.805 0 .524.07 1.106.325 1.586-.47 1.856-1.422 4.621-1.422 6.531 0 .594.09 1.172.152 1.766.113.117.059.105.234.047 1.707-2.156 1.645-2.578 2.418-5.403.414.73 1.492 1.125 2.344 1.125C11.387 11.48 13 8.246 13 5.332 13 2.227 10.094.203 6.906.203zm0 0"/></svg><svg viewBox="0 0 20.03 20" id="search" xmlns="http://www.w3.org/2000/svg"><path fill-rule="evenodd" d="M19.89 18.7l-5.81-5.81a7.944 7.944 0 10-1.18 1.178l5.81 5.81a.417.417 0 00.59 0l.59-.589a.421.421 0 000-.589zM7.93 14.167a6.25 6.25 0 116.25-6.25 6.254 6.254 0 01-6.25 6.246z"/></svg><svg viewBox="0 0 14 14" id="twitter" xmlns="http://www.w3.org/2000/svg"><path d="M12.563 4.148c.007.125.007.25.007.375 0 3.793-2.886 8.16-8.164 8.16A8.113 8.113 0 010 11.399c.23.028.453.036.691.036a5.736 5.736 0 003.563-1.227 2.87 2.87 0 01-2.68-1.988 4.1 4.1 0 00.54.043c.257 0 .515-.035.757-.098a2.868 2.868 0 01-2.3-2.816v-.035c.378.214.824.347 1.296.363a2.868 2.868 0 01-.89-3.836 8.154 8.154 0 005.918 3 3.043 3.043 0 01-.07-.656A2.864 2.864 0 019.69 1.316a2.85 2.85 0 012.098.907 5.677 5.677 0 001.82-.696 2.871 2.871 0 01-1.261 1.582A5.744 5.744 0 0014 2.664a6.176 6.176 0 01-1.438 1.484zm0 0"/></svg><svg viewBox="0 0 20 20" id="user" xmlns="http://www.w3.org/2000/svg"><path fill-rule="evenodd" d="M17.07 12.928a9.923 9.923 0 00-3.8-2.383 5.78 5.78 0 10-6.54 0A10.018 10.018 0 000 20h1.56a8.44 8.44 0 0116.88 0H20a9.931 9.931 0 00-2.93-7.072zM5.78 5.78A4.22 4.22 0 1110 10a4.222 4.222 0 01-4.22-4.22z"/></svg></svg>