<?xml version="1.0" encoding="utf-8"?><svg viewBox="0 0 1237 364" xmlns="http://www.w3.org/2000/svg" xmlns:xlink="http://www.w3.org/1999/xlink"><style>:root>svg{display:none}:root>svg:target{display:block}</style><svg viewBox="0 0 20 20" id="cart" xmlns="http://www.w3.org/2000/svg"><path fill-rule="evenodd" d="M17.44 20a2.724 2.724 0 112.74-2.724A2.738 2.738 0 0117.44 20zm0-3.814a1.09 1.09 0 101.09 1.09 1.094 1.094 0 00-1.09-1.093zm1.75-2.806H6.38a.823.823 0 01-.8-.628L2.9 1.637H.84a.817.817 0 110-1.634h2.71a.824.824 0 01.8.627l.74 3.078h16.1a.818.818 0 01.8 1.014l-2 8.038a.822.822 0 01-.8.617zM7.03 11.745h11.52l1.59-6.4H5.49zM7.48 20a2.724 2.724 0 112.74-2.724A2.738 2.738 0 017.48 20zm0-3.814a1.09 1.09 0 101.09 1.09 1.094 1.094 0 00-1.09-1.093z"/></svg><svg viewBox="0 0 40 25" id="delivery" xmlns="http://www.w3.org/2000/svg"><path d="M37.2 10.6l-1.036-4.1a.614.614 0 00.5-.6v-.66a2.621 2.621 0 00-2.631-2.6H29.31V1.28A1.286 1.286 0 0028.01 0H3.964a1.286 1.286 0 00-1.3 1.28V12.5a.627.627 0 001.253 0V1.28a.037.037 0 01.042-.04H28.01a.037.037 0 01.042.04V12.5a.627.627 0 001.253 0v-.7H36.7a2.047 2.047 0 011.946 1.4H36.7a.624.624 0 00-.626.62v1.32a1.953 1.953 0 001.962 1.94h.71v2.72h-1.637a3.982 3.982 0 00-7.5 0h-.3v-4.66a.627.627 0 00-1.253 0v4.66h-13a3.981 3.981 0 00-7.5 0h-3.6a.043.043 0 01-.042-.04V18.4h2.714a.62.62 0 100-1.24H.615a.62.62 0 100 1.24h2.046v1.36a1.286 1.286 0 001.3 1.28h3.383v.04a3.967 3.967 0 007.934 0v-.04h14.116v.04a3.967 3.967 0 007.934 0v-.04h2.048a.624.624 0 00.626-.62v-6.6A3.276 3.276 0 0037.2 10.6zm-7.889-4.08h5.565l1.023 4.04H29.31V6.52zm4.718-2.64a1.37 1.37 0 011.378 1.36v.04h-6.1v-1.4h4.718zM11.314 23.76a2.68 2.68 0 112.714-2.68 2.7 2.7 0 01-2.715 2.68zm22.047 0a2.68 2.68 0 112.714-2.68 2.7 2.7 0 01-2.715 2.68zm4.676-7.92a.7.7 0 01-.709-.7v-.7h1.419v1.4h-.71zM11.314 19.8a1.28 1.28 0 101.294 1.28 1.293 1.293 0 00-1.295-1.28zm22.047 0a1.28 1.28 0 101.294 1.28 1.293 1.293 0 00-1.295-1.28zm-17.329-2.02a.625.625 0 00.626.62h9.354a.62.62 0 100-1.24h-9.354a.625.625 0 00-.627.62zM1.96 15.76h8.018a.62.62 0 100-1.24H1.96a.62.62 0 10-.001 1.24zm18.932-9.64l-5.57 5.5-2.9-2.86a.635.635 0 00-.886 0 .619.619 0 000 .88l3.34 3.3a.635.635 0 00.886 0L21.775 7a.619.619 0 000-.88.635.635 0 00-.884 0z" fill-rule="evenodd"/></svg><svg viewBox="0 0 11 17" id="facebook" xmlns="http://www.w3.org/2000/svg"><path d="M9.594 9.563l.492-3.079H7.027V4.488c0-.84.426-1.66 1.797-1.66h1.39V.207S8.955 0 7.747 0c-2.516 0-4.16 1.473-4.16 4.14v2.344h-2.8v3.079h2.8V17h3.441V9.562zm0 0"/></svg><svg viewBox="0 0 16 16" id="google+" xmlns="http://www.w3.org/2000/svg"><path d="M16 8.18c0 4.422-3.176 7.57-7.867 7.57C3.633 15.75 0 12.29 0 8S3.633.25 8.133.25c2.187 0 4.031.766 5.449 2.027l-2.21 2.028C8.476 1.645 3.093 3.645 3.093 8c0 2.703 2.261 4.895 5.039 4.895 3.219 0 4.426-2.2 4.613-3.34H8.133V6.887h7.738c.078.398.129.777.129 1.293zm0 0"/></svg><svg viewBox="0 0 20 20" id="heart" xmlns="http://www.w3.org/2000/svg"><path fill-rule="evenodd" d="M19.75 4.589A6.683 6.683 0 0015.58.218c-1.71-.595-3.75 0-5.58 1.611C8.17.26 6.12-.293 4.42.26A6.884 6.884 0 00.25 4.631c-.47 1.57-.51 4.117 1.95 7.215 1.11 1.4 2.82 3.4 4.22 4.965 2.68 3.014 3.11 3.183 3.49 3.183h.17c.39 0 .77-.168 3.45-3.224a224.86 224.86 0 004.22-4.966c2.47-3.098 2.47-5.645 2-7.215zm-3.28 6.2c-1.96 2.462-5.32 6.324-6.47 7.385-1.15-1.061-4.52-4.924-6.48-7.385-1.61-1.994-2.21-3.947-1.7-5.687a4.986 4.986 0 013.11-3.225c1.23-.467 2.9.169 4.43 1.655a.84.84 0 001.06.126.447.447 0 00.22-.17c1.53-1.443 3.19-2.079 4.42-1.655a5.168 5.168 0 013.11 3.268c.51 1.699-.08 3.689-1.7 5.683z"/></svg><svg data-name="Geometric shape" viewBox="0 0 1237 364" id="info-bg" xmlns="http://www.w3.org/2000/svg"><path d="M1173.75 312a1.735 1.735 0 11-1.75 1.73 1.741 1.741 0 011.75-1.73zm12.3 0a1.735 1.735 0 11-1.77 1.73 1.75 1.75 0 011.77-1.73zm12.29 0a1.735 1.735 0 11-1.75 1.73 1.741 1.741 0 011.75-1.73zm12.32 0a1.735 1.735 0 11-1.75 1.73 1.748 1.748 0 011.75-1.73zm12.29 0a1.735 1.735 0 11-1.76 1.73 1.752 1.752 0 011.76-1.73zm12.3 0a1.735 1.735 0 11-1.75 1.73 1.741 1.741 0 011.75-1.73zm-61.5 12.12a1.735 1.735 0 11-1.75 1.74 1.743 1.743 0 011.75-1.74zm12.3 0a1.735 1.735 0 11-1.77 1.74 1.752 1.752 0 011.77-1.74zm12.29 0a1.735 1.735 0 11-1.75 1.74 1.743 1.743 0 011.75-1.74zm12.32 0a1.735 1.735 0 11-1.75 1.74 1.75 1.75 0 011.75-1.74zm12.29 0a1.735 1.735 0 11-1.76 1.74 1.754 1.754 0 011.76-1.74zm12.3 0a1.735 1.735 0 11-1.75 1.74 1.743 1.743 0 011.75-1.74zm-61.5 12.16A1.72 1.72 0 111172 338a1.733 1.733 0 011.75-1.72zm12.3 0a1.721 1.721 0 11-1.77 1.72 1.742 1.742 0 011.77-1.72zm12.29 0a1.72 1.72 0 11-1.75 1.72 1.733 1.733 0 011.75-1.72zm12.32 0a1.72 1.72 0 11-1.75 1.72 1.739 1.739 0 011.75-1.72zm12.29 0a1.72 1.72 0 11-1.76 1.72 1.744 1.744 0 011.76-1.72zm12.3 0a1.72 1.72 0 11-1.75 1.72 1.733 1.733 0 011.75-1.72zm-61.5 12.13a1.73 1.73 0 11-1.75 1.73 1.735 1.735 0 011.75-1.73zm12.3 0a1.73 1.73 0 11-1.77 1.73 1.744 1.744 0 011.77-1.73zm12.29 0a1.73 1.73 0 11-1.75 1.73 1.735 1.735 0 011.75-1.73zm12.32 0a1.73 1.73 0 11-1.75 1.73 1.741 1.741 0 011.75-1.73zm12.29 0a1.73 1.73 0 11-1.76 1.73 1.746 1.746 0 011.76-1.73zm12.3 0a1.73 1.73 0 11-1.75 1.73 1.735 1.735 0 011.75-1.73zm-61.5 12.12a1.735 1.735 0 11-1.75 1.74 1.743 1.743 0 011.75-1.74zm12.3 0a1.735 1.735 0 11-1.77 1.74 1.752 1.752 0 011.77-1.74zm12.29 0a1.735 1.735 0 11-1.75 1.74 1.743 1.743 0 011.75-1.74zm12.32 0a1.735 1.735 0 11-1.75 1.74 1.75 1.75 0 011.75-1.74zm12.29 0a1.735 1.735 0 11-1.76 1.74 1.754 1.754 0 011.76-1.74zm12.3 0a1.735 1.735 0 11-1.75 1.74 1.743 1.743 0 011.75-1.74zM59.989 120.99c-.375 0-.748 0-1.121-.01a.582.582 0 01-.576-.6.592.592 0 01.6-.58c1.348.03 2.718 0 4.067-.06a.577.577 0 01.615.56.6.6 0 01-.557.62c-1.004.05-2.017.07-3.028.07zm-5.21-.22a.094.094 0 01-.051-.01 63.135 63.135 0 01-4.116-.5.592.592 0 01.182-1.17c1.333.21 2.691.38 4.036.5a.582.582 0 01.533.64.594.594 0 01-.584.54zm12.3-.2a.588.588 0 01-.583-.52.6.6 0 01.514-.66c1.343-.16 2.694-.37 4.018-.62a.59.59 0 01.219 1.16c-1.35.26-2.729.47-4.1.64h-.069zm-20.406-1.09a.583.583 0 01-.131-.01 55.33 55.33 0 01-4.008-1.08.59.59 0 01.341-1.13c1.29.4 2.612.75 3.929 1.06a.588.588 0 01-.133 1.16zm28.468-.45a.592.592 0 01-.566-.44.585.585 0 01.418-.72c1.3-.35 2.614-.75 3.893-1.18a.581.581 0 01.745.37.6.6 0 01-.368.75c-1.305.44-2.641.85-3.972 1.2a.772.772 0 01-.152.02zm-36.328-1.95a.514.514 0 01-.209-.04 59.268 59.268 0 01-3.826-1.63.591.591 0 01-.286-.78.581.581 0 01.78-.29c1.227.57 2.488 1.11 3.75 1.59a.6.6 0 01-.211 1.15zm44.1-.7a.594.594 0 01-.227-1.14c1.243-.53 2.484-1.1 3.69-1.71a.581.581 0 01.788.26.587.587 0 01-.26.79c-1.231.63-2.5 1.21-3.765 1.75a.611.611 0 01-.231.05zm-51.552-2.79a.575.575 0 01-.282-.07 62.106 62.106 0 01-3.564-2.14.6.6 0 01-.175-.82.579.579 0 01.812-.18 54.93 54.93 0 003.493 2.1.6.6 0 01.231.81.592.592 0 01-.52.3zm58.88-.93a.577.577 0 01-.5-.29.6.6 0 01.2-.81 54.46 54.46 0 003.423-2.21.593.593 0 01.667.98 61.68 61.68 0 01-3.491 2.25.543.543 0 01-.304.08zm-65.782-3.55a.573.573 0 01-.351-.121 60.428 60.428 0 01-3.236-2.618.594.594 0 01-.062-.834.582.582 0 01.827-.062 59.84 59.84 0 003.173 2.566.595.595 0 01-.356 1.069zm72.535-1.143a.58.58 0 01-.459-.223.6.6 0 01.093-.832 59.242 59.242 0 003.091-2.663.585.585 0 01.83.037.594.594 0 01-.037.836 60.306 60.306 0 01-3.153 2.716.586.586 0 01-.37.129zm-78.76-4.259a.581.581 0 01-.412-.171c-.98-.976-1.939-2-2.849-3.038a.6.6 0 01.052-.836.585.585 0 01.829.053 60.397 60.397 0 002.793 2.979.6.6 0 010 .837.584.584 0 01-.418.176zm84.814-1.33a.581.581 0 01-.405-.163.6.6 0 01-.021-.837 57.825 57.825 0 002.7-3.066.585.585 0 01.826-.078.6.6 0 01.077.834 61.476 61.476 0 01-2.754 3.127.584.584 0 01-.428.183zM12.8 97.5a.586.586 0 01-.467-.232 63.665 63.665 0 01-2.407-3.4.6.6 0 01.165-.821.584.584 0 01.813.166 60.314 60.314 0 002.361 3.337.593.593 0 01-.109.829.576.576 0 01-.356.121zm95.48-1.5a.585.585 0 01-.341-.111.6.6 0 01-.135-.826 59.871 59.871 0 002.258-3.412.584.584 0 01.809-.192.6.6 0 01.19.815 65.322 65.322 0 01-2.3 3.479.586.586 0 01-.481.247zM8.27 90.6a.583.583 0 01-.511-.3 61.086 61.086 0 01-1.919-3.7.6.6 0 01.275-.79.584.584 0 01.783.278 60.513 60.513 0 001.882 3.631.593.593 0 01-.221.806.582.582 0 01-.289.082zm104.33-1.639a.58.58 0 01-.272-.068.594.594 0 01-.246-.8 60.338 60.338 0 001.77-3.694.587.587 0 01.774-.3.6.6 0 01.3.781 60.486 60.486 0 01-1.806 3.769.588.588 0 01-.52.312zM4.725 83.153a.589.589 0 01-.546-.374 61.046 61.046 0 01-1.393-3.938.594.594 0 01.381-.744.588.588 0 01.738.384c.41 1.3.869 2.6 1.366 3.861a.593.593 0 01-.33.768.57.57 0 01-.215.043zm111.19-1.772a.577.577 0 01-.2-.036.592.592 0 01-.353-.757c.456-1.277.874-2.59 1.243-3.9a.586.586 0 01.724-.408.592.592 0 01.4.73c-.375 1.34-.8 2.679-1.268 3.982a.588.588 0 01-.545.389zM2.238 75.266a.586.586 0 01-.57-.452A60.45 60.45 0 01.83 70.72a.592.592 0 01.48-.683.586.586 0 01.677.484c.228 1.345.5 2.7.821 4.014a.592.592 0 01-.431.715.56.56 0 01-.138.016zm115.914-1.848a.621.621 0 01-.121-.012.592.592 0 01-.454-.7c.276-1.333.509-2.691.694-4.038a.583.583 0 01.661-.506.591.591 0 01.5.668 60.641 60.641 0 01-.708 4.118.587.587 0 01-.571.47zM.86 67.109a.589.589 0 01-.584-.532 61.307 61.307 0 01-.27-4.172.587.587 0 111.173-.036c.042 1.359.131 2.735.265 4.09a.591.591 0 01-.525.648c-.019.002-.039.002-.058.002zm118.413-1.888h-.041a.592.592 0 01-.546-.631 60.76 60.76 0 00.023-7.851.59.59 0 01.549-.627.581.581 0 01.622.554 61.755 61.755 0 01-.022 8.001.588.588 0 01-.584.554zM.606 58.839H.583a.588.588 0 01-.564-.613c.051-1.39.149-2.793.294-4.169a.587.587 0 111.167.124 61.68 61.68 0 00-.289 4.089.588.588 0 01-.584.569zM118.9 53.177a.589.589 0 01-.581-.514c-.177-1.35-.4-2.71-.671-4.043a.592.592 0 01.458-.7.586.586 0 01.692.462c.275 1.36.5 2.747.684 4.124a.59.59 0 01-.5.664.678.678 0 01-.082.007zM1.47 50.61a.583.583 0 01-.578-.694c.239-1.368.529-2.743.861-4.09a.583.583 0 01.711-.43.592.592 0 01.429.717 59.19 59.19 0 00-.845 4.009.588.588 0 01-.578.488zm115.794-5.541a.588.588 0 01-.565-.434 58.9 58.9 0 00-1.22-3.91.6.6 0 01.358-.756.587.587 0 01.749.361c.46 1.312.878 2.654 1.245 3.989a.593.593 0 01-.41.728.607.607 0 01-.157.022zM3.454 42.582a.568.568 0 01-.181-.03.592.592 0 01-.378-.745c.425-1.319.9-2.643 1.418-3.935a.586.586 0 01.764-.328.594.594 0 01.325.77 59.978 59.978 0 00-1.39 3.858.588.588 0 01-.558.41zm111.08-5.31a.59.59 0 01-.54-.357 59.478 59.478 0 00-1.743-3.7.594.594 0 01.251-.8.585.585 0 01.791.253 59.7 59.7 0 011.779 3.773.594.594 0 01-.306.778.579.579 0 01-.232.053zM6.527 34.9a.584.584 0 01-.256-.059A.594.594 0 016 34.05a60.328 60.328 0 011.944-3.7.586.586 0 01.8-.218.594.594 0 01.216.808 59.549 59.549 0 00-1.907 3.625.584.584 0 01-.526.335zm104.231-4.964a.589.589 0 01-.5-.284 59.24 59.24 0 00-2.235-3.423.6.6 0 01.139-.825.583.583 0 01.818.141 59.153 59.153 0 012.28 3.49.6.6 0 01-.2.814.583.583 0 01-.302.084zM10.625 27.72a.578.578 0 01-.326-.1.594.594 0 01-.16-.821 60.702 60.702 0 012.43-3.39.583.583 0 01.824-.1.6.6 0 01.1.83 59.08 59.08 0 00-2.384 3.323.587.587 0 01-.484.258zm95.388-4.536a.586.586 0 01-.455-.217 60.741 60.741 0 00-2.68-3.083.594.594 0 01.025-.836.585.585 0 01.83.026 61.3 61.3 0 012.734 3.144.593.593 0 01-.083.832.58.58 0 01-.371.134zm-90.35-2a.578.578 0 01-.391-.151.594.594 0 01-.047-.835 60.527 60.527 0 012.868-3.02.584.584 0 01.83.01.6.6 0 01-.01.836 59.957 59.957 0 00-2.812 2.962.586.586 0 01-.438.196zm84.729-4.029a.585.585 0 01-.4-.158 59.124 59.124 0 00-3.076-2.684.6.6 0 01-.088-.832.584.584 0 01.825-.089c1.07.87 2.126 1.791 3.137 2.737a.6.6 0 01.031.836.583.583 0 01-.429.188zM21.541 15.4a.583.583 0 01-.448-.209.594.594 0 01.067-.833c1.05-.9 2.144-1.773 3.251-2.595a.582.582 0 01.82.124.594.594 0 01-.123.827 59.309 59.309 0 00-3.188 2.545.578.578 0 01-.379.141zM94 11.953a.575.575 0 01-.336-.107 59.512 59.512 0 00-3.412-2.233.594.594 0 01-.2-.812.582.582 0 01.805-.2 59.475 59.475 0 013.481 2.278.6.6 0 01.144.824.585.585 0 01-.482.25zM28.145 10.5a.585.585 0 01-.5-.275.6.6 0 01.18-.817 61.19 61.19 0 013.572-2.119.585.585 0 01.8.238.6.6 0 01-.235.8 57.51 57.51 0 00-3.5 2.077.574.574 0 01-.317.096zm58.816-2.807a.566.566 0 01-.267-.065c-1.2-.618-2.442-1.2-3.687-1.737a.593.593 0 01-.31-.776.585.585 0 01.77-.313 59.151 59.151 0 013.761 1.773.594.594 0 01.256.795.587.587 0 01-.523.318zM35.353 6.555a.587.587 0 01-.535-.346.6.6 0 01.291-.784 59.496 59.496 0 013.826-1.6.584.584 0 01.755.347.593.593 0 01-.344.762c-1.262.476-2.523 1-3.75 1.568a.586.586 0 01-.243.048zm44.047-2.1a.583.583 0 01-.192-.033 56.446 56.446 0 00-3.886-1.2.592.592 0 01.305-1.143 59.93 59.93 0 013.964 1.227.593.593 0 01-.191 1.139zm-36.366-.8a.592.592 0 01-.168-1.159 59.477 59.477 0 014.014-1.05.592.592 0 01.256 1.155 57.59 57.59 0 00-3.935 1.03.607.607 0 01-.167.018zm28.441-1.356a.548.548 0 01-.113-.011 59.266 59.266 0 00-4.015-.648.592.592 0 01.146-1.174c1.365.172 2.743.395 4.094.661a.592.592 0 01-.112 1.166zm-20.431-.444a.592.592 0 01-.087-1.177 59.496 59.496 0 014.118-.48.592.592 0 01.1 1.179c-1.348.11-2.707.269-4.038.472a.662.662 0 01-.093 0zm12.287-.581H63.3a59.285 59.285 0 00-4.065-.087h-.008A.592.592 0 0159.22.003a60.262 60.262 0 014.145.09.592.592 0 01-.034 1.175zM59.99 108.773c-1.257 0-2.526-.05-3.772-.147a.591.591 0 01-.539-.636.579.579 0 01.631-.544c1.215.1 2.453.144 3.679.144h.374a.592.592 0 010 1.183zm4.477-.211a.592.592 0 01-.055-1.18c1.345-.128 2.7-.316 4.017-.559a.591.591 0 01.211 1.164c-1.355.249-2.74.442-4.118.572a.507.507 0 01-.055.003zm-12.278-.435a.526.526 0 01-.1-.008 47.311 47.311 0 01-4.067-.865.591.591 0 01.292-1.146c1.3.337 2.636.621 3.967.844a.592.592 0 01-.092 1.175zm20.349-1.05a.593.593 0 01-.155-1.163c1.3-.359 2.6-.781 3.859-1.253a.591.591 0 01.408 1.109 47.525 47.525 0 01-3.956 1.286.609.609 0 01-.156.021zm-28.294-1.01a.611.611 0 01-.2-.033c-1.3-.464-2.6-.991-3.858-1.568a.593.593 0 01-.291-.783.584.584 0 01.777-.294 46.58 46.58 0 003.763 1.528.593.593 0 01.358.755.586.586 0 01-.549.395zm35.984-1.867a.587.587 0 01-.531-.339.594.594 0 01.279-.788 46.635 46.635 0 003.584-1.91.585.585 0 01.8.212.593.593 0 01-.21.809 47.757 47.757 0 01-3.674 1.959.592.592 0 01-.248.057zm-43.457-1.557a.582.582 0 01-.288-.077 48.277 48.277 0 01-3.529-2.217.6.6 0 01-.153-.822.585.585 0 01.817-.154c1.111.768 2.27 1.5 3.442 2.163a.594.594 0 01.223.806.586.586 0 01-.512.301zm50.536-2.622a.583.583 0 01-.479-.25.594.594 0 01.139-.825 45.947 45.947 0 003.2-2.506.584.584 0 01.827.069.6.6 0 01-.068.834 48.48 48.48 0 01-3.285 2.569.584.584 0 01-.334.109zM30 97.967a.583.583 0 01-.372-.134 48.628 48.628 0 01-3.1-2.8.6.6 0 01-.009-.837.585.585 0 01.83-.01 46.824 46.824 0 003.021 2.729.594.594 0 01.081.832.584.584 0 01-.451.22zm63.565-3.294a.578.578 0 01-.413-.172.6.6 0 010-.837 47.203 47.203 0 002.731-3.024.583.583 0 01.826-.075.594.594 0 01.075.833 48.119 48.119 0 01-2.8 3.1.586.586 0 01-.418.175zm-69.436-2.486a.583.583 0 01-.444-.206 48.634 48.634 0 01-2.575-3.291.6.6 0 01.133-.826.585.585 0 01.82.134 48.745 48.745 0 002.511 3.211.594.594 0 01-.062.834.577.577 0 01-.382.144zM98.82 88.32a.581.581 0 01-.335-.106.6.6 0 01-.146-.824c.77-1.115 1.5-2.276 2.173-3.454a.586.586 0 01.8-.218.594.594 0 01.216.808 48.173 48.173 0 01-2.228 3.541.586.586 0 01-.479.253zm-79.486-2.844a.587.587 0 01-.5-.288 49.01 49.01 0 01-1.972-3.689.594.594 0 01.273-.79.585.585 0 01.784.275 47.974 47.974 0 001.924 3.6.594.594 0 01-.2.811.586.586 0 01-.308.081zm83.577-4.33a.586.586 0 01-.247-.054.6.6 0 01-.285-.786 47.18 47.18 0 001.547-3.781.586.586 0 01.752-.355.592.592 0 01.351.758c-.471 1.311-1 2.615-1.585 3.877a.587.587 0 01-.532.341zM15.76 78.034a.588.588 0 01-.548-.382c-.491-1.3-.93-2.64-1.306-3.979a.587.587 0 111.129-.322 49.13 49.13 0 001.274 3.88.594.594 0 01-.34.764.569.569 0 01-.208.039zm89.945-4.666a.6.6 0 01-.151-.02.592.592 0 01-.417-.724c.345-1.308.638-2.651.87-3.993a.587.587 0 111.156.2 48.552 48.552 0 01-.891 4.094.588.588 0 01-.566.443zm-92.18-3.293a.589.589 0 01-.576-.481 48.944 48.944 0 01-.6-4.145.587.587 0 111.168-.122c.138 1.356.335 2.717.586 4.046a.591.591 0 01-.466.692.715.715 0 01-.111.01zm93.589-4.856a.435.435 0 01-.051 0 .589.589 0 01-.534-.64c.114-1.346.173-2.72.173-4.084q0-.756-.024-1.507a.59.59 0 01.568-.61.577.577 0 01.6.573q.026.768.025 1.544c0 1.4-.06 2.806-.178 4.186a.587.587 0 01-.578.538zm-94.422-3.371a.589.589 0 01-.587-.582q-.006-.385-.006-.771c0-1.137.04-2.286.119-3.417a.586.586 0 111.17.082 48.648 48.648 0 00-.109 4.087.59.59 0 01-.578.6h-.009zm94.268-6.416a.59.59 0 01-.582-.522 48.015 48.015 0 00-.65-4.035.587.587 0 111.149-.241c.28 1.358.5 2.75.667 4.136a.59.59 0 01-.514.657.549.549 0 01-.069.005zM13.267 53.6a.582.582 0 01-.092-.008.59.59 0 01-.488-.676 49.02 49.02 0 01.825-4.108.587.587 0 01.712-.432.594.594 0 01.428.718 45.872 45.872 0 00-.806 4.006.589.589 0 01-.579.5zm92.026-6.264a.588.588 0 01-.562-.421c-.388-1.3-.838-2.6-1.336-3.86a.593.593 0 01.328-.769.584.584 0 01.762.33 48.164 48.164 0 011.37 3.958.591.591 0 01-.393.736.551.551 0 01-.169.024zm-90.047-1.762a.58.58 0 01-.191-.032.594.594 0 01-.364-.752 47.984 47.984 0 011.523-3.9.587.587 0 01.775-.3.6.6 0 01.3.782 46.954 46.954 0 00-1.486 3.805.588.588 0 01-.557.395zm87.01-5.919a.586.586 0 01-.525-.326 47.98 47.98 0 00-1.98-3.567.6.6 0 01.19-.814.585.585 0 01.808.192 48.727 48.727 0 012.031 3.657.594.594 0 01-.261.794.567.567 0 01-.263.062zm-83.674-1.643a.574.574 0 01-.284-.074.594.594 0 01-.229-.8 49.164 49.164 0 012.171-3.575.585.585 0 01.815-.16.593.593 0 01.158.821 47.261 47.261 0 00-2.117 3.488.587.587 0 01-.514.298zm79.36-5.392a.582.582 0 01-.471-.238 46.922 46.922 0 00-2.561-3.17.593.593 0 01.049-.835.582.582 0 01.828.049 49.681 49.681 0 012.625 3.249.6.6 0 01-.12.829.588.588 0 01-.35.114zm-74.776-1.47a.58.58 0 01-.368-.131.6.6 0 01-.089-.833 49.385 49.385 0 012.749-3.144.583.583 0 01.83-.016.6.6 0 01.017.836 47.283 47.283 0 00-2.682 3.068.584.584 0 01-.457.218zm69.324-4.712a.589.589 0 01-.4-.161 46.401 46.401 0 00-3.064-2.68.6.6 0 01-.094-.832.583.583 0 01.824-.1 48.186 48.186 0 013.141 2.747.594.594 0 01.023.836.582.582 0 01-.43.188zm-63.637-1.253a.584.584 0 01-.442-.2.6.6 0 01.055-.835c1.038-.917 2.13-1.8 3.244-2.621a.583.583 0 01.82.127.594.594 0 01-.127.827 46.38 46.38 0 00-3.164 2.557.582.582 0 01-.386.143zm57.211-3.893a.577.577 0 01-.324-.1 46.698 46.698 0 00-3.476-2.107.6.6 0 01-.236-.8.587.587 0 01.8-.237 48.158 48.158 0 013.563 2.16.6.6 0 01.166.82.586.586 0 01-.493.262zm-50.593-1a.587.587 0 01-.5-.284.6.6 0 01.2-.813 48.245 48.245 0 013.643-2.017.584.584 0 01.786.268.594.594 0 01-.266.793c-1.207.6-2.4 1.263-3.553 1.968a.586.586 0 01-.31.087zm43.381-2.954a.573.573 0 01-.234-.05 46.039 46.039 0 00-3.786-1.466.592.592 0 01.372-1.123c1.312.443 2.618.948 3.883 1.5a.6.6 0 01.3.779.588.588 0 01-.535.362zm-36.028-.707a.585.585 0 01-.546-.377.592.592 0 01.333-.766 47.818 47.818 0 013.936-1.35.584.584 0 01.728.4.593.593 0 01-.4.733 45.7 45.7 0 00-3.838 1.316.592.592 0 01-.213.046zm28.248-1.921a.591.591 0 01-.138-.016 46.236 46.236 0 00-3.98-.78.592.592 0 01.174-1.171c1.367.206 2.739.476 4.08.8a.592.592 0 01-.136 1.169zm-20.373-.4a.592.592 0 01-.114-1.172 48.165 48.165 0 014.108-.639.592.592 0 01.129 1.177 46.678 46.678 0 00-4.008.623.567.567 0 01-.114.016zm12.259-.826h-.036a47.314 47.314 0 00-4.055-.078.6.6 0 01-.6-.578.59.59 0 01.573-.605 48.415 48.415 0 014.155.079.594.594 0 01-.037 1.187zm-4.735 83.321h-.029a35.7 35.7 0 01-4.149-.448.59.59 0 01-.483-.68.582.582 0 01.675-.487 34.707 34.707 0 004.014.433.594.594 0 01-.028 1.187zm4.1-.032a.592.592 0 01-.038-1.183 35.065 35.065 0 004.006-.5.592.592 0 01.211 1.165 36.037 36.037 0 01-4.14.514zm-12.19-1.321a.622.622 0 01-.163-.023 35.7 35.7 0 01-3.937-1.4.593.593 0 01-.313-.775.585.585 0 01.768-.317A34.464 34.464 0 0050.3 94.3a.593.593 0 01-.163 1.157zm20.252-.165a.592.592 0 01-.171-1.157A34.984 34.984 0 0074 92.719a.583.583 0 01.773.3.593.593 0 01-.3.779 35.871 35.871 0 01-3.913 1.464.57.57 0 01-.171.03zm-27.814-3.035a.582.582 0 01-.288-.077 36.1 36.1 0 01-3.51-2.277.594.594 0 01-.129-.826.583.583 0 01.82-.13 35.365 35.365 0 003.4 2.2.6.6 0 01.223.806.586.586 0 01-.512.309zm35.318-.285a.588.588 0 01-.507-.293.594.594 0 01.21-.809 34.982 34.982 0 003.359-2.256.582.582 0 01.822.117.593.593 0 01-.116.828 36.023 36.023 0 01-3.472 2.331.571.571 0 01-.292.087zm-41.944-4.581a.582.582 0 01-.4-.157 36.463 36.463 0 01-2.9-3.024.594.594 0 01.061-.834.582.582 0 01.828.063 35.7 35.7 0 002.806 2.925.594.594 0 01.034.836.581.581 0 01-.425.196zM84.44 87a.579.579 0 01-.425-.184.594.594 0 01.021-.836 35.444 35.444 0 002.761-2.971.583.583 0 01.826-.075.594.594 0 01.075.833 36.837 36.837 0 01-2.853 3.071.586.586 0 01-.405.162zM30.6 81.13a.588.588 0 01-.487-.259 36.793 36.793 0 01-2.137-3.612.6.6 0 01.25-.8.585.585 0 01.791.252 35.638 35.638 0 002.068 3.5.593.593 0 01-.157.821.579.579 0 01-.328.098zm59.09-.474a.577.577 0 01-.321-.1.594.594 0 01-.17-.819 35.334 35.334 0 002.013-3.53.584.584 0 01.788-.264.594.594 0 01.262.794 36.578 36.578 0 01-2.081 3.648.584.584 0 01-.49.271zM26.817 73.8a.587.587 0 01-.549-.381 36.653 36.653 0 01-1.254-4.013.587.587 0 111.138-.29A35.415 35.415 0 0027.365 73a.591.591 0 01-.34.763.564.564 0 01-.208.037zm66.541-.539a.581.581 0 01-.2-.035.593.593 0 01-.352-.758 35.169 35.169 0 001.151-3.9.587.587 0 111.143.27 36.364 36.364 0 01-1.19 4.035.589.589 0 01-.552.389zm-68.546-7.474a.588.588 0 01-.581-.514 36.944 36.944 0 01-.3-4.194.59.59 0 01.578-.6h.009a.59.59 0 01.587.583 35.474 35.474 0 00.294 4.058.591.591 0 01-.5.664.691.691 0 01-.087.004zm70.422-.572h-.067a.591.591 0 01-.516-.655 36.278 36.278 0 00.23-4.065c0-.381-.006-.761-.018-1.137a.587.587 0 111.173-.038c.013.391.019.782.018 1.176a37.477 37.477 0 01-.237 4.2.589.589 0 01-.583.52zm-70.551-7.688h-.059a.591.591 0 01-.526-.647 36.881 36.881 0 01.65-4.156.587.587 0 111.147.252 35.606 35.606 0 00-.629 4.02.589.589 0 01-.583.532zm70.4-1.722a.589.589 0 01-.581-.5 35.332 35.332 0 00-.821-3.985.591.591 0 01.414-.725.585.585 0 01.719.417 36.577 36.577 0 01.85 4.12.591.591 0 01-.5.671.633.633 0 01-.08.003zm-68.656-6.354a.58.58 0 01-.191-.032.592.592 0 01-.364-.752 36.439 36.439 0 011.585-3.895.583.583 0 01.783-.277.6.6 0 01.275.79 35.3 35.3 0 00-1.534 3.767.588.588 0 01-.553.4zm66.523-1.623a.588.588 0 01-.545-.373 35.122 35.122 0 00-1.711-3.683.594.594 0 01.237-.8.585.585 0 01.8.238 36.5 36.5 0 011.768 3.808.592.592 0 01-.327.769.576.576 0 01-.221.042zM29.976 42a.578.578 0 01-.313-.092.594.594 0 01-.183-.816 36.356 36.356 0 012.43-3.421.583.583 0 01.825-.089.6.6 0 01.089.832 35.26 35.26 0 00-2.352 3.31.583.583 0 01-.496.276zm59.077-1.436a.583.583 0 01-.481-.252 35.61 35.61 0 00-2.506-3.192.6.6 0 01.048-.834.583.583 0 01.829.048 36.372 36.372 0 012.589 3.3.593.593 0 01-.143.823.572.572 0 01-.336.107zm-53.928-5a.583.583 0 01-.418-.177.6.6 0 01.006-.837 36.633 36.633 0 013.14-2.771.584.584 0 01.824.1.6.6 0 01-.1.831 35.233 35.233 0 00-3.037 2.681.587.587 0 01-.415.177zm48.48-1.178a.58.58 0 01-.391-.15 35.539 35.539 0 00-3.163-2.533.593.593 0 01-.142-.823.584.584 0 01.818-.144A36.6 36.6 0 0184 33.357a.594.594 0 01.048.835.581.581 0 01-.443.198zm-42.012-3.9a.583.583 0 01-.5-.285.594.594 0 01.2-.812 36.1 36.1 0 013.684-1.973.587.587 0 01.778.292.594.594 0 01-.288.785 34.539 34.539 0 00-3.564 1.907.588.588 0 01-.31.093zm35.307-.86a.569.569 0 01-.28-.073 34.636 34.636 0 00-3.655-1.731.594.594 0 01-.326-.77.584.584 0 01.763-.329 36.014 36.014 0 013.779 1.791.594.594 0 01.235.8.586.586 0 01-.516.319zm-27.858-2.582a.592.592 0 01-.181-1.155 35.516 35.516 0 014.038-1.061.591.591 0 01.229 1.16 34.55 34.55 0 00-3.9 1.027.575.575 0 01-.186.036zm20.248-.494a.6.6 0 01-.155-.021 34.79 34.79 0 00-3.951-.834.591.591 0 01.174-1.17 35.889 35.889 0 014.085.862.592.592 0 01-.153 1.17zm-12.212-1.123a.592.592 0 01-.047-1.181 35.773 35.773 0 012.947-.121c.424-.009.818.006 1.225.02a.591.591 0 01.566.612.585.585 0 01-.605.571c-.394-.013-.771-.008-1.186-.02-.948 0-1.908.04-2.852.117z" fill-rule="evenodd"/></svg><svg viewBox="0 0 16 17" id="linkedin" xmlns="http://www.w3.org/2000/svg"><path d="M3.582 14.875H.266v-9.93h3.316zM1.922 3.59C.859 3.59 0 2.773 0 1.785 0 .801.86 0 1.922 0 2.98 0 3.844.8 3.844 1.785c0 .988-.864 1.805-1.922 1.805zm14.074 11.285h-3.309v-4.836c0-1.152-.027-2.629-1.726-2.629-1.723 0-1.988 1.254-1.988 2.547v4.918H5.66v-9.93h3.18v1.352h.047c.441-.777 1.523-1.602 3.14-1.602C15.383 4.695 16 6.75 16 9.418v5.457zm0 0"/></svg><svg viewBox="0 0 13 16" id="pinterest" xmlns="http://www.w3.org/2000/svg"><path d="M6.906.203C3.434.203 0 2.34 0 5.801 0 8 1.34 9.25 2.152 9.25c.336 0 .528-.863.528-1.105 0-.293-.801-.91-.801-2.122 0-2.511 2.07-4.293 4.754-4.293 2.304 0 4.012 1.211 4.012 3.434 0 1.656-.723 4.77-3.06 4.77-.843 0-1.562-.563-1.562-1.368 0-1.183.895-2.324.895-3.543 0-2.07-3.18-1.695-3.18.805 0 .524.07 1.106.325 1.586-.47 1.856-1.422 4.621-1.422 6.531 0 .594.09 1.172.152 1.766.113.117.059.105.234.047 1.707-2.156 1.645-2.578 2.418-5.403.414.73 1.492 1.125 2.344 1.125C11.387 11.48 13 8.246 13 5.332 13 2.227 10.094.203 6.906.203zm0 0"/></svg><svg viewBox="0 0 23 25" id="return" xmlns="http://www.w3.org/2000/svg"><path d="M23 2.44l-1.451-.11-.121 1.69A12.253 12.253 0 0012.358 0a12.5 12.5 0 000 25 12.3 12.3 0 0010.265-5.55l-1.207-.82a10.863 10.863 0 01-9.058 4.9 11.031 11.031 0 010-22.06 10.806 10.806 0 018.057 3.61l-1.851-.14-.106 1.47 4.234.31zM4.067 12.78a2.429 2.429 0 00.947.24c.356 0 .608-.11.608-.37a.539.539 0 00-.624-.41h-.46v-.73h.443a.477.477 0 00.554-.31c0-.17-.176-.29-.51-.29a2.022 2.022 0 00-.86.23l-.219-.74a2.666 2.666 0 011.309-.3 1.116 1.116 0 011.332.93.866.866 0 01-.7.84v.01a.87.87 0 01.816.84c0 .7-.657 1.11-1.611 1.11a2.514 2.514 0 01-1.243-.28zm4.617 1.05a1.538 1.538 0 11.006 0h-.006zm.011-.75c.28 0 .466-.35.466-1.11s-.186-1.11-.471-1.11-.471.34-.471 1.11.186 1.11.471 1.11zm3.183-3a9.807 9.807 0 011.3-.08 2.885 2.885 0 011.66.38 1.569 1.569 0 01.734 1.41 1.788 1.788 0 01-.679 1.52 3.173 3.173 0 01-1.917.5 7.786 7.786 0 01-1.1-.06v-3.67zM12.913 13a1.826 1.826 0 00.241.01 1.124 1.124 0 001.31-1.16 1.03 1.03 0 00-1.189-1.06 1.909 1.909 0 00-.362.03V13zm5.725.09a3.849 3.849 0 00.044.68h-.932l-.055-.23h-.021a1.012 1.012 0 01-.789.29.875.875 0 01-.943-.85c0-.74.647-1.07 1.666-1.07v-.02c0-.1-.066-.22-.471-.22a1.861 1.861 0 00-.817.21l-.18-.65a2.564 2.564 0 011.177-.26 1.134 1.134 0 011.321 1.21v.91zm-1-.55c-.455 0-.674.11-.674.34a.247.247 0 00.3.24.4.4 0 00.367-.28.689.689 0 00.011-.15v-.15zm2.443-1.5l.356 1.18c.044.16.1.38.137.51h.026c.038-.14.082-.36.115-.51l.268-1.18h1.129l-.57 1.56a4.369 4.369 0 01-1.09 2.02 1.683 1.683 0 01-.97.38l-.192-.88a1.2 1.2 0 00.335-.07.955.955 0 00.35-.25.223.223 0 00.055-.13.406.406 0 00-.044-.16l-1.057-2.47h1.156z" fill-rule="evenodd"/></svg><svg viewBox="0 0 20.03 20" id="search" xmlns="http://www.w3.org/2000/svg"><path fill-rule="evenodd" d="M19.89 18.7l-5.81-5.81a7.944 7.944 0 10-1.18 1.178l5.81 5.81a.417.417 0 00.59 0l.59-.589a.421.421 0 000-.589zM7.93 14.167a6.25 6.25 0 116.25-6.25 6.254 6.254 0 01-6.25 6.246z"/></svg><svg viewBox="0 0 26 25" id="support" xmlns="http://www.w3.org/2000/svg"><path fill-rule="evenodd" d="M25.495 14.209l-4.149 4.765a3.36 3.36 0 01-.652.579l-.017.01c-.676.422-1.525.636-2.526.636h-6.156c-.424 0-.852.023-1.274.072l-.696.076.304.289a.492.492 0 01.01.71l-3.493 3.5a.521.521 0 01-.719.013L.161 19.313a.489.489 0 01-.015-.708l3.527-3.576a.525.525 0 01.366-.153h.004c.133 0 .262.051.358.142l.725.688a7.264 7.264 0 011.322-1.387c1.484-1.182 3.24-1.545 5.078-1.048.705.19 1.449.286 2.212.286h4.046c.589 0 1.109.227 1.464.64.073.084.139.175.196.271l2.89-2.792a2.107 2.107 0 011.598-.594 2.387 2.387 0 011.452.594c.776.7.821 1.717.111 2.533zm-21.44 1.873l-2.816 2.854 5.227 4.86 2.785-2.79-5.196-4.924zm20.636-3.671c-.416-.375-1.16-.491-1.635-.027l-3.329 3.217c-.015.48-.184.93-.482 1.272-.358.411-.882.638-1.477.638h-3.522a.505.505 0 01-.512-.5c0-.275.229-.499.512-.499h3.522c.298 0 .532-.096.697-.286.153-.174.24-.427.24-.693 0-.362-.194-.977-.921-.977h-4.046a9.551 9.551 0 01-2.485-.323c-1.526-.413-2.925-.123-4.158.86a6.274 6.274 0 00-1.225 1.316l3.205 3.037 1.53-.168a12.4 12.4 0 011.39-.078h6.156c.798 0 1.46-.159 1.967-.472.166-.114.317-.249.449-.4l4.148-4.766c.48-.55.191-.958-.024-1.151zm-12.416 5.088a.51.51 0 01-.615-.372l-.005-.021a.499.499 0 01.382-.599.511.511 0 01.614.372l.005.02a.499.499 0 01-.381.6zm9.04-6.966h-4.983c-.272 0-.523-.085-.727-.232a1.237 1.237 0 01-.726.232H9.896c-.272 0-.523-.085-.727-.232a1.242 1.242 0 01-.727.232H3.459c-.682 0-1.238-.542-1.238-1.209V7.056A2.61 2.61 0 013.68 4.715a2.826 2.826 0 01-.679-1.837c0-1.587 1.323-2.88 2.949-2.88 1.627 0 2.95 1.293 2.95 2.88 0 .698-.255 1.338-.678 1.836.377.189.701.462.947.793.245-.331.569-.604.947-.792a2.826 2.826 0 01-.679-1.837c0-1.587 1.323-2.88 2.95-2.88 1.626 0 2.95 1.293 2.95 2.88 0 .698-.255 1.338-.679 1.836.378.189.701.462.947.793.246-.331.569-.604.947-.793a2.822 2.822 0 01-.679-1.836c0-1.587 1.324-2.88 2.95-2.88 1.627 0 2.95 1.293 2.95 2.88 0 .698-.255 1.338-.679 1.836a2.611 2.611 0 011.459 2.341v2.269c0 .667-.556 1.209-1.238 1.209zM5.951.997c-1.063 0-1.927.844-1.927 1.881 0 1.038.864 1.882 1.927 1.882 1.062 0 1.927-.844 1.927-1.882 0-1.037-.865-1.881-1.927-1.881zm2.707 6.058c0-.802-.584-1.471-1.379-1.606a3 3 0 01-2.657 0 1.634 1.634 0 00-1.378 1.606v2.269c0 .116.096.211.215.211h4.983a.214.214 0 00.216-.211V7.055zM12.387.997c-1.063 0-1.927.844-1.927 1.881 0 1.038.864 1.882 1.927 1.882 1.063 0 1.927-.844 1.927-1.882 0-1.037-.864-1.881-1.927-1.881zm2.707 6.058c0-.802-.584-1.471-1.379-1.606a2.993 2.993 0 01-2.656 0A1.634 1.634 0 009.68 7.055v2.269c0 .116.097.211.216.211h4.983a.214.214 0 00.215-.211V7.055zM18.823.997c-1.062 0-1.927.844-1.927 1.881 0 1.038.865 1.882 1.927 1.882 1.063 0 1.927-.844 1.927-1.882 0-1.037-.864-1.881-1.927-1.881zm2.707 6.058c0-.802-.584-1.471-1.378-1.606a3 3 0 01-2.657 0 1.632 1.632 0 00-1.378 1.606v2.269c0 .116.096.211.215.211h4.983a.214.214 0 00.215-.211V7.055z"/></svg><svg viewBox="0 0 14 14" id="twitter" xmlns="http://www.w3.org/2000/svg"><path d="M12.563 4.148c.007.125.007.25.007.375 0 3.793-2.886 8.16-8.164 8.16A8.113 8.113 0 010 11.399c.23.028.453.036.691.036a5.736 5.736 0 003.563-1.227 2.87 2.87 0 01-2.68-1.988 4.1 4.1 0 00.54.043c.257 0 .515-.035.757-.098a2.868 2.868 0 01-2.3-2.816v-.035c.378.214.824.347 1.296.363a2.868 2.868 0 01-.89-3.836 8.154 8.154 0 005.918 3 3.043 3.043 0 01-.07-.656A2.864 2.864 0 019.69 1.316a2.85 2.85 0 012.098.907 5.677 5.677 0 001.82-.696 2.871 2.871 0 01-1.261 1.582A5.744 5.744 0 0014 2.664a6.176 6.176 0 01-1.438 1.484zm0 0"/></svg><svg viewBox="0 0 20 20" id="user" xmlns="http://www.w3.org/2000/svg"><path fill-rule="evenodd" d="M17.07 12.928a9.923 9.923 0 00-3.8-2.383 5.78 5.78 0 10-6.54 0A10.018 10.018 0 000 20h1.56a8.44 8.44 0 0116.88 0H20a9.931 9.931 0 00-2.93-7.072zM5.78 5.78A4.22 4.22 0 1110 10a4.222 4.222 0 01-4.22-4.22z"/></svg></svg>