<svg 
 xmlns="http://www.w3.org/2000/svg"
 xmlns:xlink="http://www.w3.org/1999/xlink"
 width="26px" height="25px">
<path fill-rule="evenodd"  fill="rgb(255, 255, 255)"
 d="M25.495,14.209 L21.346,18.974 C21.155,19.194 20.936,19.389 20.694,19.553 C20.688,19.556 20.682,19.560 20.677,19.563 C20.001,19.985 19.152,20.199 18.151,20.199 L11.995,20.199 C11.571,20.199 11.143,20.222 10.721,20.271 L10.025,20.347 L10.329,20.636 C10.426,20.727 10.483,20.854 10.485,20.986 C10.488,21.119 10.435,21.251 10.339,21.346 L6.846,24.846 C6.745,24.946 6.612,24.997 6.479,24.997 C6.352,24.997 6.226,24.951 6.127,24.859 L0.161,19.313 C0.063,19.221 0.006,19.095 0.003,18.962 C-0.000,18.829 0.051,18.700 0.146,18.605 L3.673,15.029 C3.768,14.933 3.902,14.877 4.039,14.876 C4.041,14.876 4.041,14.876 4.043,14.876 C4.176,14.876 4.305,14.927 4.401,15.018 L5.126,15.706 C5.404,15.323 5.845,14.801 6.448,14.319 C7.932,13.137 9.688,12.774 11.526,13.271 C12.231,13.461 12.975,13.557 13.738,13.557 L17.784,13.557 C18.373,13.557 18.893,13.784 19.248,14.197 C19.321,14.281 19.387,14.372 19.444,14.468 L22.334,11.676 C22.757,11.262 23.325,11.052 23.932,11.082 C24.465,11.109 24.995,11.326 25.384,11.676 C26.160,12.376 26.205,13.393 25.495,14.209 ZM4.055,16.082 L1.239,18.936 L6.466,23.796 L9.251,21.006 L4.055,16.082 ZM24.691,12.411 C24.275,12.036 23.531,11.920 23.056,12.384 L19.727,15.601 C19.712,16.081 19.543,16.531 19.245,16.873 C18.887,17.284 18.363,17.511 17.768,17.511 L14.246,17.511 C13.963,17.511 13.734,17.288 13.734,17.011 C13.734,16.736 13.963,16.512 14.246,16.512 L17.768,16.512 C18.066,16.512 18.300,16.416 18.465,16.226 C18.618,16.052 18.705,15.799 18.705,15.533 C18.705,15.171 18.511,14.556 17.784,14.556 L13.738,14.556 C12.883,14.556 12.047,14.447 11.253,14.233 C9.727,13.820 8.328,14.110 7.095,15.093 C6.502,15.566 6.092,16.087 5.870,16.409 L9.075,19.446 L10.605,19.278 C11.064,19.226 11.532,19.200 11.995,19.200 L18.151,19.200 C18.949,19.200 19.611,19.041 20.118,18.728 C20.284,18.614 20.435,18.479 20.567,18.328 L24.715,13.562 C25.195,13.012 24.906,12.604 24.691,12.411 ZM12.275,17.499 C12.236,17.508 12.196,17.513 12.157,17.513 C11.926,17.513 11.716,17.357 11.660,17.127 L11.655,17.106 C11.591,16.838 11.762,16.569 12.037,16.507 C12.312,16.444 12.587,16.611 12.651,16.879 L12.656,16.899 C12.720,17.168 12.550,17.436 12.275,17.499 ZM21.315,10.533 L16.332,10.533 C16.060,10.533 15.809,10.448 15.605,10.301 C15.401,10.448 15.150,10.533 14.879,10.533 L9.896,10.533 C9.624,10.533 9.373,10.448 9.169,10.301 C8.964,10.448 8.713,10.533 8.442,10.533 L3.459,10.533 C2.777,10.533 2.221,9.991 2.221,9.324 L2.221,7.056 C2.221,6.037 2.805,5.151 3.680,4.715 C3.256,4.216 3.001,3.576 3.001,2.878 C3.001,1.291 4.324,-0.002 5.950,-0.002 C7.577,-0.002 8.900,1.291 8.900,2.878 C8.900,3.576 8.645,4.216 8.222,4.714 C8.599,4.903 8.923,5.176 9.169,5.507 C9.414,5.176 9.738,4.903 10.116,4.715 C9.692,4.216 9.437,3.576 9.437,2.878 C9.437,1.291 10.760,-0.002 12.387,-0.002 C14.013,-0.002 15.337,1.291 15.337,2.878 C15.337,3.576 15.082,4.216 14.658,4.714 C15.036,4.903 15.359,5.176 15.605,5.507 C15.851,5.176 16.174,4.903 16.552,4.714 C16.128,4.216 15.873,3.576 15.873,2.878 C15.873,1.291 17.197,-0.002 18.823,-0.002 C20.450,-0.002 21.773,1.291 21.773,2.878 C21.773,3.576 21.518,4.216 21.094,4.714 C21.969,5.151 22.553,6.036 22.553,7.055 L22.553,9.324 C22.553,9.991 21.997,10.533 21.315,10.533 ZM5.951,0.997 C4.888,0.997 4.024,1.841 4.024,2.878 C4.024,3.916 4.888,4.760 5.951,4.760 C7.013,4.760 7.878,3.916 7.878,2.878 C7.878,1.841 7.013,0.997 5.951,0.997 ZM8.658,7.055 C8.658,6.253 8.074,5.584 7.279,5.449 C6.879,5.646 6.428,5.759 5.951,5.759 C5.473,5.759 5.022,5.646 4.622,5.449 C3.828,5.584 3.244,6.253 3.244,7.055 L3.244,9.324 C3.244,9.440 3.340,9.535 3.459,9.535 L8.442,9.535 C8.561,9.535 8.658,9.440 8.658,9.324 L8.658,7.055 ZM12.387,0.997 C11.324,0.997 10.460,1.841 10.460,2.878 C10.460,3.916 11.324,4.760 12.387,4.760 C13.450,4.760 14.314,3.916 14.314,2.878 C14.314,1.841 13.450,0.997 12.387,0.997 ZM15.094,7.055 C15.094,6.253 14.510,5.584 13.715,5.449 C13.316,5.646 12.865,5.759 12.387,5.759 C11.909,5.759 11.458,5.646 11.059,5.449 C10.264,5.584 9.680,6.253 9.680,7.055 L9.680,9.324 C9.680,9.440 9.777,9.535 9.896,9.535 L14.879,9.535 C14.997,9.535 15.094,9.440 15.094,9.324 L15.094,7.055 ZM18.823,0.997 C17.761,0.997 16.896,1.841 16.896,2.878 C16.896,3.916 17.761,4.760 18.823,4.760 C19.886,4.760 20.750,3.916 20.750,2.878 C20.750,1.841 19.886,0.997 18.823,0.997 ZM21.530,7.055 C21.530,6.253 20.946,5.584 20.152,5.449 C19.752,5.646 19.301,5.759 18.823,5.759 C18.346,5.759 17.894,5.646 17.495,5.449 C16.700,5.584 16.116,6.253 16.117,7.055 L16.117,9.324 C16.117,9.440 16.213,9.535 16.332,9.535 L21.315,9.535 C21.433,9.535 21.530,9.440 21.530,9.324 L21.530,7.055 Z"/>
</svg>